<?xml version="1.0" standalone="no"?>
<!DOCTYPE svg PUBLIC "-//W3C//DTD SVG 20010904//EN"
 "http://www.w3.org/TR/2001/REC-SVG-20010904/DTD/svg10.dtd">
<svg version="1.0" xmlns="http://www.w3.org/2000/svg"
 width="1632.000000pt" height="1368.000000pt" viewBox="0 0 1632.000000 1368.000000"
 preserveAspectRatio="xMidYMid meet">

<g transform="translate(0.000000,1368.000000) scale(0.100000,-0.100000)"
fill="#000000" stroke="none">
<path d="M8639 8170 c-21 -17 -22 -19 -6 -20 10 0 15 -5 12 -10 -4 -6 -12 -7
-18 -3 -7 4 -6 0 2 -10 15 -19 33 -12 76 27 21 20 23 25 9 30 -28 11 -51 7
-75 -14z"/>
<path d="M8724 8103 c-21 -3 -35 -12 -43 -29 -6 -15 -7 -23 -1 -19 6 4 9 -3 7
-15 -1 -16 11 -28 53 -51 266 -147 456 -335 579 -569 150 -287 188 -615 106
-925 -124 -472 -507 -835 -985 -936 -148 -31 -372 -31 -520 0 -242 51 -468
172 -648 348 -35 34 -71 63 -80 65 -10 2 -19 16 -22 33 -4 23 -11 30 -29 30
-15 0 -28 9 -34 23 -6 12 -14 22 -19 22 -4 0 -8 6 -8 14 0 8 -15 39 -32 69
-28 48 -37 55 -58 51 -44 -8 -54 7 -41 65 13 63 14 121 1 141 -8 12 -11 12
-27 -1 -23 -20 -87 -49 -107 -49 -25 0 -19 -40 19 -131 199 -465 637 -798
1143 -870 134 -19 403 -6 534 25 381 89 699 317 909 651 150 239 220 487 220
780 0 498 -246 951 -665 1224 -83 54 -112 61 -151 35 -27 -18 -66 -15 -73 5
-3 8 0 11 6 7 6 -3 13 -2 17 4 3 5 0 9 -7 8 -7 0 -27 -3 -44 -5z"/>
<path d="M8489 7963 c-19 -24 -21 -25 -17 -7 4 16 1 20 -11 17 -9 -2 -17 -15
-18 -30 0 -14 -6 -30 -13 -37 -10 -8 -11 -5 -5 14 7 22 6 23 -9 11 -9 -7 -16
-10 -16 -5 0 5 -5 2 -10 -6 -8 -12 -10 -9 -10 12 0 15 -4 30 -10 33 -5 3 -10
-1 -10 -9 0 -9 -5 -16 -11 -16 -5 0 -7 -4 -4 -10 3 -5 -4 -10 -15 -10 -17 0
-21 4 -16 18 4 10 -1 8 -13 -7 -10 -13 -20 -19 -22 -14 -7 17 -49 26 -49 10 0
-7 -11 -24 -25 -37 -14 -13 -25 -35 -25 -48 0 -14 -7 -30 -17 -37 -9 -7 -13
-17 -9 -24 6 -9 11 -9 21 -1 8 6 33 10 57 8 39 -3 43 -6 46 -32 3 -23 -6 -38
-51 -81 -30 -29 -57 -63 -60 -75 -8 -31 2 -78 18 -84 8 -3 47 5 88 18 64 20
78 21 99 10 40 -21 41 -40 2 -66 -18 -12 -34 -29 -34 -35 0 -7 -7 -13 -15 -13
-8 0 -15 -4 -15 -10 0 -5 7 -10 15 -10 21 0 31 -30 14 -41 -8 -5 -76 -9 -151
-9 -116 0 -138 -2 -138 -15 0 -12 21 -15 123 -17 67 -1 137 0 156 1 56 4 81
-6 81 -33 0 -28 -45 -56 -89 -56 -14 0 -41 -9 -58 -20 -27 -16 -31 -23 -24
-42 4 -13 17 -24 29 -26 23 -4 34 -23 23 -41 -6 -9 -37 -11 -110 -9 -88 3
-101 1 -101 -13 0 -14 14 -18 85 -20 68 -3 87 -8 98 -22 16 -23 118 -30 124
-9 13 36 86 -9 76 -46 -5 -19 -10 -22 -39 -16 -22 4 -34 2 -34 -5 0 -7 -23
-11 -62 -11 -75 0 -83 -5 -91 -48 -5 -26 -3 -34 11 -40 10 -4 -10 -9 -53 -13
-50 -5 -38 -6 43 -4 101 3 113 2 110 -13 -3 -15 -24 -17 -171 -20 -153 -2
-168 -4 -165 -20 3 -15 23 -18 185 -22 100 -3 183 -7 186 -10 2 -3 9 -14 15
-26 9 -17 7 -22 -19 -31 -16 -6 -31 -7 -34 -2 -3 5 -61 8 -128 7 -89 -2 -111
-4 -79 -10 88 -15 130 -63 134 -151 2 -39 -2 -49 -29 -73 -17 -16 -36 -30 -42
-31 -17 -4 -13 14 4 21 27 10 55 90 45 127 -21 73 -60 91 -176 83 -73 -6 -84
-9 -84 -25 0 -16 8 -19 59 -19 63 0 111 -13 111 -30 0 -13 32 -45 53 -53 15
-6 25 -37 12 -37 -3 0 -31 13 -63 29 -39 19 -67 27 -85 24 -32 -6 -34 -25 -7
-75 18 -34 18 -37 2 -41 -9 -3 6 -5 34 -6 100 -2 184 -72 184 -153 0 -41 -18
-86 -44 -107 -9 -7 -13 -17 -10 -22 3 -5 -3 -6 -12 -2 -12 4 -15 3 -10 -6 6
-9 0 -10 -20 -5 -15 4 -25 3 -21 -2 3 -5 -44 -9 -109 -9 -63 0 -109 2 -104 3
6 2 8 8 4 13 -3 5 -12 5 -23 -1 -15 -8 -26 -1 -59 39 -22 26 -42 58 -45 72 -2
13 -5 -6 -6 -43 -1 -83 -20 -91 -23 -10 0 31 -2 62 -3 67 -2 6 -4 28 -5 50 -2
39 -3 39 -10 10 -4 -16 -8 -25 -9 -19 0 6 -24 37 -51 70 -28 32 -56 65 -62 73
-9 11 -5 33 15 94 15 45 25 83 23 85 -2 2 -12 -21 -21 -50 -10 -29 -26 -71
-36 -93 -20 -45 -50 -147 -45 -153 2 -2 9 12 15 30 l12 33 19 -30 c11 -17 20
-37 20 -46 0 -8 9 -34 20 -57 11 -23 23 -56 27 -72 3 -17 10 -30 15 -30 5 0 7
-4 4 -8 -3 -5 2 -34 10 -66 20 -77 6 -96 -45 -57 -17 13 -35 17 -63 13 -35 -3
-44 0 -74 29 -26 25 -32 38 -28 58 4 22 4 23 -6 9 -17 -28 -56 -23 -69 10 -38
97 -80 225 -75 233 3 5 0 9 -6 9 -7 0 -10 7 -6 15 3 8 1 15 -4 15 -12 0 -33
67 -24 81 5 8 3 9 -6 4 -9 -6 -10 -2 -5 15 5 16 4 20 -5 15 -9 -5 -10 -1 -5
15 5 16 4 20 -5 15 -9 -5 -10 -1 -5 15 5 17 4 21 -5 15 -8 -5 -11 -4 -6 3 4 6
4 23 0 37 -5 21 -9 24 -16 13 -7 -10 -8 -8 -4 5 3 10 6 24 6 30 1 24 21 -24
88 -214 102 -282 113 -310 123 -304 5 4 9 11 9 16 0 6 -4 8 -9 4 -6 -3 -26 45
-46 106 -35 109 -36 112 -17 129 13 12 24 15 33 9 8 -5 17 -9 20 -9 13 0 1 71
-18 107 -11 21 -23 58 -26 83 l-6 45 45 -48 c24 -27 44 -53 44 -59 0 -5 16
-26 35 -45 27 -27 34 -41 29 -57 -15 -48 -14 -49 10 -6 14 25 25 56 25 70 0
14 -3 19 -6 12 -3 -8 -16 4 -33 30 -15 24 -46 61 -69 83 -22 21 -41 45 -41 53
0 7 4 11 9 8 5 -3 14 0 20 8 10 12 16 12 39 1 20 -10 38 -12 67 -5 65 15 68
14 61 -22 l-6 -33 19 25 19 24 5 -29 c4 -30 4 -30 6 4 1 27 4 31 15 22 10 -9
16 -8 25 3 10 12 8 17 -11 27 -14 8 -18 14 -10 17 25 8 11 18 -30 21 -26 1
-61 14 -90 31 -27 17 -48 25 -48 20 0 -14 -27 -12 -33 3 -4 10 -6 10 -6 0 -1
-7 -8 -13 -17 -13 -11 0 -14 8 -11 33 2 17 9 31 16 30 18 -5 14 94 -4 101 -19
7 -19 37 0 62 8 11 15 41 15 71 l0 52 -27 -15 c-16 -7 -37 -14 -48 -14 -11 0
-26 -4 -34 -9 -8 -5 -21 -7 -28 -4 -17 7 -10 48 12 70 9 9 12 25 9 46 -9 52
-12 57 -36 57 -42 1 7 27 54 28 36 2 57 13 58 32 0 3 -88 4 -196 2 -146 -2
-200 0 -211 10 -12 10 -18 9 -30 -7 -42 -55 -113 -270 -113 -342 0 -64 61 -78
94 -22 22 38 33 37 51 -7 13 -31 18 -35 37 -30 64 20 84 18 102 -9 10 -16 15
-35 11 -48 -5 -17 -4 -19 4 -7 8 11 11 4 11 -33 0 -45 -1 -47 -20 -35 -17 11
-22 10 -30 -2 -5 -8 -10 -25 -10 -37 0 -17 -6 -23 -22 -24 -18 -1 -19 -2 -5
-6 14 -4 16 -11 11 -41 -9 -51 -12 -55 -48 -49 -50 8 -65 -6 -56 -51 5 -27 3
-45 -7 -57 -12 -18 -13 -18 -13 -1 0 14 -3 16 -13 7 -8 -6 -17 -8 -20 -4 -4 3
-14 0 -23 -8 -16 -13 -17 -11 -10 16 4 17 13 37 21 45 7 8 25 40 39 70 15 30
33 67 41 83 21 40 -6 36 -51 -8 -20 -21 -45 -35 -59 -35 -22 0 -23 -3 -15 -31
5 -17 5 -51 1 -77 -5 -25 -6 -53 -1 -61 4 -9 17 -37 29 -63 11 -27 25 -48 30
-48 5 0 13 -9 16 -20 3 -11 13 -20 21 -20 16 0 19 39 5 87 -10 34 4 57 19 33
6 -9 10 -6 15 9 5 18 9 20 21 10 11 -9 17 -9 29 1 8 6 19 9 25 5 15 -9 12 -45
-4 -51 -21 -8 -28 -49 -15 -99 12 -47 39 -82 39 -50 0 12 6 16 20 12 11 -3 20
-1 20 4 0 35 64 -42 76 -92 11 -44 24 -193 25 -287 l1 -94 39 -39 c58 -58 195
-145 302 -191 480 -208 1026 -106 1395 261 421 418 490 1080 167 1578 -106
163 -310 347 -461 415 -27 12 -55 21 -62 20 -7 -2 -19 3 -27 11 -15 15 -118
32 -134 23 -5 -4 -12 -2 -16 4 -10 16 -22 12 -46 -17z m-219 -59 c0 -8 -4 -12
-10 -9 -5 3 -10 10 -10 16 0 5 5 9 10 9 6 0 10 -7 10 -16z m505 -519 c0 -19
-8 -20 -194 -23 -198 -2 -217 1 -204 35 4 11 43 13 202 11 188 -3 196 -4 196
-23z m283 -5 c11 -19 25 -30 38 -30 12 0 24 -7 28 -15 4 -10 -1 -15 -14 -15
-11 0 -20 -3 -20 -7 0 -7 84 -248 131 -376 35 -95 37 -117 8 -117 -15 0 -19 5
-15 16 4 10 2 13 -6 8 -8 -5 -9 -2 -5 10 4 9 -29 118 -78 258 -47 133 -85 243
-85 245 0 2 -6 3 -14 3 -16 0 -15 1 -121 -300 -74 -211 -85 -250 -64 -220 9
13 10 13 6 0 -4 -15 -47 -28 -47 -14 0 10 59 174 71 196 5 10 9 27 9 38 0 11
5 20 10 20 6 0 10 9 10 20 0 11 11 47 24 80 14 33 23 60 21 60 -2 0 6 24 17
53 11 28 22 61 25 72 15 52 46 59 71 15z m-1819 -71 c-22 -14 -33 -10 -19 6 7
8 17 12 22 9 6 -4 5 -10 -3 -15z m69 -237 c-3 -239 -4 -247 -23 -247 -19 0
-20 8 -23 245 l-2 246 25 2 25 2 -2 -248z m1262 236 c0 6 7 12 15 12 13 0 15
-35 15 -251 l0 -250 -22 3 c-20 3 -23 10 -25 48 -2 34 0 40 7 25 7 -17 9 -15
7 12 0 17 -5 29 -9 27 -4 -3 -8 28 -8 68 0 51 3 68 10 58 8 -13 10 -12 10 3 0
9 -4 17 -10 17 -6 0 -10 34 -10 81 0 61 3 79 13 73 10 -6 10 -4 0 7 -7 7 -13
29 -13 49 0 26 3 31 10 20 6 -10 10 -11 10 -2z m411 -95 c-12 -20 -14 -14 -5
12 4 9 9 14 11 11 3 -2 0 -13 -6 -23z m-1621 -138 c0 -26 -14 -33 -25 -15 -9
14 1 40 15 40 5 0 10 -11 10 -25z m1758 -15 c2 -12 -13 -15 -88 -15 -58 0 -90
4 -90 11 0 21 15 25 94 22 62 -2 81 -6 84 -18z m-257 -187 c-12 -20 -14 -14
-5 12 4 9 9 14 11 11 3 -2 0 -13 -6 -23z m204 -13 c-3 -5 -10 -10 -16 -10 -5
0 -9 5 -9 10 0 6 7 10 16 10 8 0 12 -4 9 -10z m-1735 -40 c0 -5 -4 -10 -10
-10 -5 0 -10 5 -10 10 0 6 5 10 10 10 6 0 10 -4 10 -10z m-53 -122 c-3 -8 -6
-5 -6 6 -1 11 2 17 5 13 3 -3 4 -12 1 -19z m1287 5 c-104 -3 -145 -7 -153 -17
-8 -9 -11 -90 -9 -262 l3 -249 148 -3 c191 -3 198 -22 8 -22 -77 0 -146 3
-155 6 -14 5 -16 39 -16 273 0 147 3 271 7 274 3 4 74 6 157 5 l151 -2 -141
-3z m491 -5 c22 -6 43 -11 46 -10 4 1 15 -8 25 -20 11 -12 13 -18 7 -14 -16 9
-16 6 2 -35 10 -25 15 -29 15 -14 1 11 4 15 6 9 3 -6 0 -22 -5 -35 l-9 -24
-11 30 c-29 76 -50 95 -118 108 -36 7 -95 -1 -88 -12 2 -4 -6 -7 -18 -7 -13 1
-22 -5 -22 -14 0 -8 -7 -15 -15 -15 -26 0 -36 -51 -20 -98 14 -41 19 -44 142
-104 146 -71 164 -91 155 -176 -3 -32 -1 -44 5 -35 8 11 9 11 6 0 -2 -8 -6
-12 -10 -10 -10 5 -58 -44 -52 -53 3 -5 -3 -6 -12 -2 -11 4 -15 3 -11 -4 5 -7
-1 -9 -15 -5 -11 3 -19 1 -16 -4 4 -5 -22 -9 -57 -9 -36 0 -58 4 -52 8 7 5 0
7 -16 4 -15 -2 -25 -2 -22 1 3 3 -11 16 -31 30 -35 24 -65 75 -63 109 0 13 4
10 13 -10 7 -15 15 -25 18 -21 4 3 4 -3 1 -14 -3 -14 5 -27 33 -48 34 -27 44
-29 121 -29 80 0 84 1 114 32 26 26 32 40 32 75 0 70 -13 84 -148 148 -102 48
-126 64 -140 90 -63 122 57 223 210 178z m-198 -125 c-3 -10 -5 -4 -5 12 0 17
2 24 5 18 2 -7 2 -21 0 -30z m-549 -66 c2 -10 -3 -17 -12 -17 -10 0 -16 9 -16
21 0 24 23 21 28 -4z m-1038 -8 c0 -11 -4 -17 -10 -14 -5 3 -10 13 -10 21 0 8
5 14 10 14 6 0 10 -9 10 -21z m1383 -61 c3 -10 -17 -12 -87 -10 -125 5 -137
22 -14 22 67 0 97 -4 101 -12z m514 -170 c-2 -13 -4 -5 -4 17 -1 22 1 32 4 23
2 -10 2 -28 0 -40z m-1707 -155 c6 -14 18 -23 31 -23 15 0 19 -4 15 -16 -3 -9
-6 -31 -6 -49 0 -34 -27 -73 -40 -58 -14 16 -40 93 -41 125 -1 18 -8 56 -15
83 -7 28 -15 70 -18 95 -5 39 -1 33 29 -45 20 -49 40 -100 45 -112z m1680 83
c0 -2 -8 -10 -17 -17 -16 -13 -17 -12 -4 4 13 16 21 21 21 13z"/>
<path d="M8523 7393 c37 -2 96 -2 130 0 34 2 4 3 -68 3 -71 0 -99 -1 -62 -3z"/>
<path d="M9005 7390 c-4 -6 5 -10 20 -10 15 0 24 4 20 10 -3 6 -12 10 -20 10
-8 0 -17 -4 -20 -10z"/>
<path d="M7272 7070 c0 -14 2 -19 5 -12 2 6 2 18 0 25 -3 6 -5 1 -5 -13z"/>
<path d="M8421 7964 c0 -11 3 -14 6 -6 3 7 2 16 -1 19 -3 4 -6 -2 -5 -13z"/>
<path d="M8008 7938 c-10 -10 -13 -20 -8 -23 6 -4 10 -1 10 5 0 7 6 10 13 8 6
-3 12 -10 12 -15 0 -24 13 -22 29 3 17 25 17 26 -2 20 -13 -4 -24 -2 -29 7 -6
11 -11 10 -25 -5z"/>
<path d="M7008 7687 c-79 -78 -183 -280 -234 -457 -37 -128 -54 -251 -54 -399
0 -132 1 -136 26 -162 26 -27 25 -49 -2 -49 -8 0 -14 -8 -14 -18 0 -26 11 -34
28 -19 8 6 40 19 70 27 74 20 86 49 40 92 -18 17 -46 37 -63 44 -16 7 -41 24
-54 38 l-24 26 55 -4 c51 -4 57 -2 67 20 6 14 11 45 11 69 0 39 3 45 21 45 20
0 21 4 14 46 -4 27 -3 49 3 53 5 3 19 44 31 91 12 47 40 130 63 185 22 55 51
128 63 162 37 99 39 253 2 253 -3 0 -25 -19 -49 -43z"/>
<path d="M7140 7449 c-14 -16 -27 -32 -29 -34 -2 -3 12 -5 31 -5 28 0 37 5 41
21 6 22 -1 50 -12 48 -3 0 -17 -14 -31 -30z"/>
<path d="M7158 7393 c12 -2 30 -2 40 0 9 3 -1 5 -23 4 -22 0 -30 -2 -17 -4z"/>
<path d="M7293 7393 c15 -2 39 -2 55 0 15 2 2 4 -28 4 -30 0 -43 -2 -27 -4z"/>
<path d="M7546 7392 c-2 -4 4 -9 15 -9 11 -1 17 2 14 8 -7 11 -22 12 -29 1z"/>
<path d="M8213 7133 c9 -2 23 -2 30 0 6 3 -1 5 -18 5 -16 0 -22 -2 -12 -5z"/>
<path d="M7590 7090 c0 -20 5 -20 122 -18 108 3 123 5 126 21 3 15 -8 17 -122
17 -120 0 -126 -1 -126 -20z"/>
<path d="M7580 6946 c0 -35 4 -46 16 -46 8 0 12 5 9 10 -3 6 -1 10 5 10 19 0
7 64 -12 68 -15 3 -18 -4 -18 -42z"/>
<path d="M6932 6856 c5 -43 28 -76 61 -89 35 -13 11 69 -34 114 -28 28 -32 24
-27 -25z"/>
<path d="M7071 6824 c0 -11 3 -14 6 -6 3 7 2 16 -1 19 -3 4 -6 -2 -5 -13z"/>
<path d="M7860 6800 c0 -24 25 -27 34 -4 9 23 8 24 -14 24 -13 0 -20 -7 -20
-20z"/>
<path d="M7801 6698 c0 -13 3 -17 6 -10 7 17 21 15 26 -5 3 -11 5 -7 6 10 1
21 -4 27 -19 27 -14 0 -20 -6 -19 -22z"/>
<path d="M7950 6698 c0 -17 3 -19 9 -9 5 7 15 17 22 22 10 6 8 9 -8 9 -17 0
-23 -6 -23 -22z"/>
<path d="M6797 6533 c-21 -2 -40 -10 -43 -17 -7 -19 20 -119 34 -124 6 -2 16
7 21 20 11 30 47 62 60 53 6 -3 11 1 11 10 0 11 -5 15 -15 11 -9 -3 -15 0 -15
10 0 8 5 12 10 9 6 -3 10 1 10 10 0 11 -5 15 -16 11 -8 -3 -12 -2 -9 4 3 6 3
9 -2 8 -4 -1 -25 -3 -46 -5z"/>
<path d="M8029 6433 c-16 -43 -1 -57 68 -63 57 -5 105 -31 89 -48 -4 -3 -11 0
-15 7 -16 25 -170 0 -172 -28 -1 -9 -5 -2 -9 14 -7 29 -8 29 -10 -10 -1 -22
-3 -60 -4 -85 l-1 -45 117 0 c109 0 118 2 142 24 32 30 50 82 41 121 -8 35
-60 94 -75 85 -5 -3 -10 -1 -10 5 0 7 -7 9 -16 6 -10 -4 -13 -2 -8 6 5 8 -11
9 -61 4 -65 -7 -67 -6 -62 14 8 29 -2 25 -14 -7z"/>
<path d="M7172 6200 c0 -14 2 -19 5 -12 2 6 2 18 0 25 -3 6 -5 1 -5 -13z"/>
<path d="M7163 6150 c-10 -25 -6 -60 7 -60 12 0 17 32 10 60 l-7 25 -10 -25z"/>
<path d="M7230 6002 c0 -11 74 -82 85 -82 6 0 -7 16 -27 35 -21 18 -38 39 -38
44 0 6 -4 11 -10 11 -5 0 -10 -4 -10 -8z"/>
</g>
</svg>
